<svg  id="icon" width="18" height="15" viewBox="0 0 18 15" fill="none" xmlns="http://www.w3.org/2000/svg">
<path fill-rule="evenodd" clip-rule="evenodd" d="M18 13.0998C18 13.6417 17.4801 14.081 16.8387 14.081H1.16129C0.519929 14.081 7.74569e-07 13.6417 7.9871e-07 13.0998C8.22851e-07 12.5578 0.519928 12.1185 1.16129 12.1185H16.8387C17.4801 12.1185 18 12.5578 18 13.0998Z" fill="#343C6A"/>
<path fill-rule="evenodd" clip-rule="evenodd" d="M18 7.21228C18 7.75421 17.5523 8.19353 17 8.19353L1 8.19353C0.447716 8.19353 -2.41411e-08 7.75421 0 7.21228C2.41411e-08 6.67036 0.447716 6.23104 1 6.23104L17 6.23104C17.5523 6.23104 18 6.67036 18 7.21228Z" fill="#343C6A"/>
<path fill-rule="evenodd" clip-rule="evenodd" d="M18 1.32481C18 1.86674 17.4801 2.30605 16.8387 2.30605L1.16129 2.30606C0.519929 2.30606 7.74569e-07 1.86674 7.9871e-07 1.32481C8.22851e-07 0.782889 0.519928 0.343571 1.16129 0.343571L16.8387 0.343567C17.4801 0.343567 18 0.782884 18 1.32481Z" fill="#343C6A"/>
</svg>
